<svg width="25" height="25" viewBox="0 0 25 25" fill="none" xmlns="http://www.w3.org/2000/svg">
<g clip-path="url(#clip0_3058_1549)">
<path d="M23.8276 16.3296L17.1904 12.5L23.8276 8.67041C24.2017 8.45459 24.3296 7.97705 24.1138 7.60303L22.5503 4.89648C22.3345 4.52295 21.8565 4.39453 21.4824 4.61035L14.8452 8.43994V0.78125C14.8452 0.349609 14.4951 0 14.0635 0H10.9365C10.5049 0 10.1548 0.349609 10.1548 0.78125V8.44043L3.51759 4.61084C3.14357 4.39502 2.66554 4.52344 2.44972 4.89697L0.886241 7.60303C0.670421 7.97656 0.79835 8.45459 1.17237 8.67041L7.80958 12.5L1.17237 16.3296C0.79835 16.5454 0.670421 17.0234 0.886241 17.397L2.44972 20.1035C2.66554 20.4771 3.14357 20.605 3.51759 20.3896L10.1548 16.5601V24.2188C10.1548 24.6504 10.5049 25 10.9365 25H14.0635C14.4951 25 14.8452 24.6504 14.8452 24.2188V16.5596L21.4824 20.3892C21.8565 20.605 22.3345 20.4771 22.5503 20.103L24.1138 17.3965C24.3296 17.0229 24.2017 16.5454 23.8276 16.3296V16.3296Z" fill="#E2B6CD"/>
</g>
<defs>
<clipPath id="clip0_3058_1549">
<rect width="25" height="25" fill="white"/>
</clipPath>
</defs>
</svg>
